<?xml version="1.0" encoding="utf-8"?>
<svg version="1.2" baseProfile="tiny" id="Layer_1" xmlns="http://www.w3.org/2000/svg" xmlns:xlink="http://www.w3.org/1999/xlink"
	 x="0px" y="0px" viewBox="0 0 118.2 132.7" overflow="visible" xml:space="preserve">
<g>
	<path fill-rule="evenodd" fill="currentColor" d="M113.6,85.1V43.2c0-5.5-2.9-10.5-7.6-13.3C95.9,24,78.1,13.5,67.2,7.1
		c-5.8-3.4-12.9-3.3-18.6,0.2c-9.7,6-24.7,15.3-34.5,21.3c-5.9,3.6-9.4,10-9.4,16.9v42.9c0,6.8,3.6,13.2,9.5,16.6l35.9,21
		c4.8,2.8,10.7,2.9,15.5,0.2c10.5-5.8,29.1-16.2,39.8-22.1c5.1-2.8,8.2-8.2,8.2-14L113.6,85.1L113.6,85.1z"/>
	<polygon fill="#FFFFFF" points="31.9,101.6 31.9,30.5 46.8,30.5 46.8,56.4 71.5,56.4 71.5,30.5 86.4,30.5 86.4,101.6 71.5,101.6 
		71.5,70.5 46.8,70.5 46.8,101.6 	"/>
</g>
</svg>
